# Blender v2.71 (sub 0) OBJ File: 'Level1.blend'
# www.blender.org
v -3.991530 0.000000 0.260176
v 3.991530 0.000000 -0.260176
v 1.187945 0.000000 -20.580643
v -6.163769 0.000000 -17.425917
v -11.406699 0.000000 -36.261974
v -18.468151 0.000000 -32.502201
v -13.805507 0.000000 -43.495548
v -21.794786 0.000000 -43.909607
v -10.233792 0.000000 -52.081215
v -15.818596 0.000000 -57.809216
v -3.063338 0.000000 -54.678806
v -4.352335 0.000000 -62.574284
v 10.487875 0.000000 -53.976868
v 12.697495 0.000000 -61.665668
v 29.100636 0.000000 -43.916489
v 35.499672 0.000000 -48.717773
v 33.248764 0.000000 -24.694923
v 41.245129 0.000000 -24.453651
v 34.850998 0.000000 -4.756123
v 42.828999 0.000000 -5.349079
v 38.370850 0.000000 17.557613
v 46.016602 0.000000 15.203341
v 44.225407 0.000000 52.352570
v 52.213802 0.000000 52.783337
v 38.371475 0.000000 73.886574
v 44.814960 0.000000 78.628036
v 25.765808 0.000000 81.900024
v 28.264505 0.000000 89.499794
v 11.219405 0.000000 82.739822
v 10.010266 0.000000 90.647911
v -4.220997 0.000000 76.992683
v -9.337891 0.000000 83.142273
v -12.288578 0.000000 63.483788
v -19.824203 0.000000 66.169754
v -14.644213 0.000000 47.837093
v -22.438362 0.000000 46.033947
v -4.018617 0.000000 32.466713
v -11.196875 0.000000 28.935034
v 2.813386 0.000000 12.086611
v -4.776088 0.000000 9.556782
v -3.991530 2.000000 0.260176
v 3.991530 2.000000 -0.260176
v 1.187945 2.000000 -20.580643
v -6.163769 2.000000 -17.425917
v -11.406699 2.000000 -36.261974
v -18.468151 2.000000 -32.502201
v -13.805507 2.000000 -43.495548
v -21.794786 2.000000 -43.909607
v -10.233792 2.000000 -52.081215
v -15.818596 2.000000 -57.809216
v -3.063338 2.000000 -54.678806
v -4.352335 2.000000 -62.574284
v 10.487875 2.000000 -53.976868
v 12.697495 2.000000 -61.665668
v 29.100636 2.000000 -43.916489
v 35.499672 2.000000 -48.717773
v 33.248764 2.000000 -24.694923
v 41.245129 2.000000 -24.453651
v 34.850998 2.000000 -4.756123
v 42.828999 2.000000 -5.349079
v 38.370850 2.000000 17.557613
v 46.016602 2.000000 15.203341
v 44.225407 2.000000 52.352570
v 52.213802 2.000000 52.783337
v 38.371475 2.000000 73.886574
v 44.814960 2.000000 78.628036
v 25.765808 2.000000 81.900024
v 28.264505 2.000000 89.499794
v 11.219405 2.000000 82.739822
v 10.010266 2.000000 90.647911
v -4.220997 2.000000 76.992683
v -9.337891 2.000000 83.142273
v -12.288578 2.000000 63.483788
v -19.824203 2.000000 66.169754
v -14.644213 2.000000 47.837093
v -22.438362 2.000000 46.033947
v -4.018617 2.000000 32.466713
v -11.196875 2.000000 28.935034
v 2.813386 2.000000 12.086611
v -4.776088 2.000000 9.556782
v -4.332620 -0.365520 0.266646
v 4.357141 -0.340953 -0.267836
v 1.536192 -0.325861 -20.730717
v -6.454260 -0.387600 -17.301950
v -11.115858 -0.374630 -36.420258
v -18.798681 -0.332453 -32.328384
v -13.502351 -0.397443 -43.484333
v -22.178938 -0.319163 -43.933121
v -10.031318 -0.404950 -51.869064
v -16.091064 -0.315729 -58.085026
v -3.014997 -0.377285 -54.354301
v -4.415966 -0.330210 -62.944275
v 10.400088 -0.380078 -53.664101
v 12.803180 -0.329447 -62.026611
v 28.868557 -0.407163 -43.742290
v 35.811203 -0.313639 -48.951378
v 32.906681 -0.361141 -24.644506
v 41.602242 -0.345317 -24.510401
v 34.495762 -0.349300 -4.713900
v 43.176010 -0.357585 -5.390310
v 38.021336 -0.352977 17.614576
v 46.365170 -0.354091 15.147583
v 43.900093 -0.379345 52.336502
v 52.588402 -0.330454 52.804958
v 38.128960 -0.399060 73.707886
v 45.125591 -0.318262 78.856529
v 25.667599 -0.384167 81.595467
v 28.384245 -0.326853 89.858704
v 11.268052 -0.378201 82.416435
v 9.952922 -0.330897 91.018326
v -4.024793 -0.394940 76.757080
v -9.582985 -0.321009 83.437004
v -11.978998 -0.376644 63.372929
v -20.177074 -0.331309 66.295082
v -14.352044 -0.400052 47.904800
v -22.814152 -0.318262 45.947456
v -3.689506 -0.338420 32.631466
v -11.500717 -0.368831 28.787981
v 3.170910 -0.341166 12.162540
v -5.108449 -0.367275 9.488695
v -4.491438 2.000000 0.269667
v 4.491407 2.000000 -0.270659
v 1.647111 2.000000 -20.778509
v -6.623637 2.000000 -17.229668
v -10.967538 2.000000 -36.500996
v -18.910685 2.000000 -32.269497
v -13.305858 2.000000 -43.477055
v -22.293840 2.000000 -43.940155
v -9.888597 2.000000 -51.719509
v -16.169971 2.000000 -58.164909
v -2.989667 2.000000 -54.184269
v -4.437069 2.000000 -63.067036
v 10.352770 2.000000 -53.495483
v 12.837986 2.000000 -62.145512
v 28.700768 2.000000 -43.616341
v 35.899677 2.000000 -49.017738
v 32.754120 2.000000 -24.622015
v 41.738918 2.000000 -24.532129
v 34.354507 2.000000 -4.697115
v 43.325504 2.000000 -5.408087
v 37.877365 2.000000 17.638044
v 46.510315 2.000000 15.124358
v 43.726017 2.000000 52.327911
v 52.712963 2.000000 52.812160
v 37.968937 2.000000 73.589996
v 45.217728 2.000000 78.924294
v 25.612347 2.000000 81.424164
v 28.422729 2.000000 89.974083
v 11.293778 2.000000 82.245392
v 9.933772 2.000000 91.142021
v -3.901056 2.000000 76.608467
v -9.657572 2.000000 83.526703
v -11.817861 2.000000 63.315220
v -20.295364 2.000000 66.337090
v -14.157122 2.000000 47.949966
v -22.925606 2.000000 45.921791
v -3.571521 2.000000 32.690536
v -11.646915 2.000000 28.717209
v 3.302460 2.000000 12.190480
v -5.265910 2.000000 9.456437
v 3.991530 2.000000 -0.260176
v 1.187945 2.000000 -20.580643
v 1.187945 2.000000 -20.580643
v -6.163769 2.000000 -17.425917
v -6.163769 2.000000 -17.425917
v -3.991530 2.000000 0.260176
v -18.468151 2.000000 -32.502201
v -11.406699 2.000000 -36.261974
v -21.794786 2.000000 -43.909607
v -21.794786 2.000000 -43.909607
v -13.805507 2.000000 -43.495548
v -13.805507 2.000000 -43.495548
v -15.818596 2.000000 -57.809216
v -15.818596 2.000000 -57.809216
v -10.233792 2.000000 -52.081215
v -10.233792 2.000000 -52.081215
v -4.352335 2.000000 -62.574284
v -3.063338 2.000000 -54.678806
v 12.697495 2.000000 -61.665668
v 10.487875 2.000000 -53.976868
v 35.499672 2.000000 -48.717773
v 35.499672 2.000000 -48.717773
v 29.100636 2.000000 -43.916489
v 29.100636 2.000000 -43.916489
v 41.245129 2.000000 -24.453651
v 33.248764 2.000000 -24.694923
v 42.828999 2.000000 -5.349079
v 34.850998 2.000000 -4.756123
v 46.016602 2.000000 15.203341
v 38.370850 2.000000 17.557613
v 52.213802 2.000000 52.783337
v 44.225407 2.000000 52.352570
v 44.814960 2.000000 78.628036
v 44.814960 2.000000 78.628036
v 38.371475 2.000000 73.886574
v 38.371475 2.000000 73.886574
v 28.264505 2.000000 89.499794
v 25.765808 2.000000 81.900024
v 10.010266 2.000000 90.647911
v 11.219405 2.000000 82.739822
v -9.337891 2.000000 83.142273
v -9.337891 2.000000 83.142273
v -4.220997 2.000000 76.992683
v -4.220997 2.000000 76.992683
v -19.824203 2.000000 66.169754
v -12.288578 2.000000 63.483788
v -22.438362 2.000000 46.033947
v -22.438362 2.000000 46.033947
v -14.644213 2.000000 47.837093
v -14.644213 2.000000 47.837093
v -11.196875 2.000000 28.935034
v -4.018617 2.000000 32.466713
v -4.776088 2.000000 9.556782
v 2.813386 2.000000 12.086611
v -21.794786 0.000000 -43.909607
v -15.818596 0.000000 -57.809216
v -4.220997 0.000000 76.992683
v 44.814960 0.000000 78.628036
v -10.233792 0.000000 -52.081215
v 38.371475 0.000000 73.886574
v -6.163769 0.000000 -17.425917
v -13.805507 0.000000 -43.495548
v -22.438362 0.000000 46.033947
v 1.187945 0.000000 -20.580643
v 35.499672 0.000000 -48.717773
v -9.337891 0.000000 83.142273
v -14.644213 0.000000 47.837093
v 29.100636 0.000000 -43.916489
v 4.491407 2.000000 -0.270659
v 1.647111 2.000000 -20.778509
v 1.647111 2.000000 -20.778509
v -6.623637 2.000000 -17.229668
v -6.623637 2.000000 -17.229668
v -4.491438 2.000000 0.269667
v -18.910685 2.000000 -32.269497
v -10.967538 2.000000 -36.500996
v -22.293840 2.000000 -43.940155
v -22.293840 2.000000 -43.940155
v -13.305858 2.000000 -43.477055
v -13.305858 2.000000 -43.477055
v -16.169971 2.000000 -58.164909
v -16.169971 2.000000 -58.164909
v -9.888597 2.000000 -51.719509
v -9.888597 2.000000 -51.719509
v -4.437069 2.000000 -63.067036
v -2.989667 2.000000 -54.184269
v 12.837986 2.000000 -62.145512
v 10.352770 2.000000 -53.495483
v 35.899677 2.000000 -49.017738
v 35.899677 2.000000 -49.017738
v 28.700768 2.000000 -43.616341
v 28.700768 2.000000 -43.616341
v 41.738918 2.000000 -24.532129
v 32.754120 2.000000 -24.622015
v 43.325504 2.000000 -5.408087
v 34.354507 2.000000 -4.697115
v 46.510315 2.000000 15.124358
v 37.877365 2.000000 17.638044
v 52.712963 2.000000 52.812160
v 43.726017 2.000000 52.327911
v 45.217728 2.000000 78.924294
v 45.217728 2.000000 78.924294
v 37.968937 2.000000 73.589996
v 37.968937 2.000000 73.589996
v 28.422729 2.000000 89.974083
v 25.612347 2.000000 81.424164
v 9.933772 2.000000 91.142021
v 11.293778 2.000000 82.245392
v -9.657572 2.000000 83.526703
v -9.657572 2.000000 83.526703
v -3.901056 2.000000 76.608467
v -3.901056 2.000000 76.608467
v -20.295364 2.000000 66.337090
v -11.817861 2.000000 63.315220
v -22.925606 2.000000 45.921791
v -22.925606 2.000000 45.921791
v -14.157122 2.000000 47.949966
v -14.157122 2.000000 47.949966
v -11.646915 2.000000 28.717209
v -3.571521 2.000000 32.690536
v -5.265910 2.000000 9.456437
v 3.302460 2.000000 12.190480
v -22.178938 -0.319163 -43.933121
v -16.091064 -0.315729 -58.085026
v -4.024793 -0.394940 76.757080
v 45.125591 -0.318262 78.856529
v -10.031318 -0.404950 -51.869064
v 38.128960 -0.399060 73.707886
v -6.454260 -0.387600 -17.301950
v -13.502351 -0.397443 -43.484333
v -22.814152 -0.318262 45.947456
v 1.536192 -0.325861 -20.730717
v 35.811203 -0.313639 -48.951378
v -9.582985 -0.321009 83.437004
v -14.352044 -0.400052 47.904800
v 28.868557 -0.407163 -43.742290
vt 0.901431 0.000000
vt 0.913752 0.000000
vt 0.913752 0.091138
vt 0.987679 0.099054
vt 0.975358 0.099054
vt 0.975358 0.000000
vt 0.987679 0.046446
vt 1.000000 0.046446
vt 1.000000 0.133812
vt 0.926073 0.000000
vt 0.938394 0.000000
vt 0.938394 0.151060
vt 0.913752 0.396693
vt 0.926073 0.396693
vt 0.926073 0.472394
vt 0.987679 0.192966
vt 0.975358 0.192966
vt 0.901431 0.091138
vt 0.913752 0.163815
vt 0.987679 0.000000
vt 1.000000 0.000000
vt 0.926073 0.151060
vt 0.938394 0.396150
vt 0.901431 0.431406
vt 0.913752 0.431406
vt 0.913752 0.557975
vt 0.987679 0.275042
vt 0.975358 0.275042
vt 0.901431 0.163815
vt 0.913752 0.257829
vt 0.926073 0.396150
vt 0.938394 0.529886
vt 0.913752 0.770372
vt 0.926073 0.770372
vt 0.926073 0.818883
vt 0.901431 0.557975
vt 0.913752 0.671093
vt 0.950715 0.140319
vt 0.938394 0.140319
vt 0.913752 0.721387
vt 0.926073 0.721387
vt 0.926073 0.529886
vt 0.938394 0.652132
vt 0.950715 0.363104
vt 0.938394 0.363104
vt 0.901431 0.671093
vt 0.913752 0.800218
vt 0.913752 0.279070
vt 0.926073 0.279070
vt 0.913752 0.604100
vt 0.926073 0.604100
vt 0.926073 0.652132
vt 0.938394 0.812995
vt 0.950715 0.506035
vt 0.938394 0.506035
vt 0.901431 0.800218
vt 0.913752 0.906924
vt 0.913752 0.198572
vt 0.926073 0.198572
vt 0.975358 0.330170
vt 0.963037 0.330170
vt 0.963037 0.184312
vt 0.901431 0.257829
vt 0.913752 0.371277
vt 0.963037 0.349664
vt 0.950716 0.349664
vt 0.950716 0.225402
vt 0.950715 0.634151
vt 0.938394 0.634151
vt 0.913752 0.096864
vt 0.926073 0.096864
vt 0.913752 0.472394
vt 0.975358 0.184312
vt 0.963037 0.074417
vt 0.901431 0.371277
vt 0.950715 0.756987
vt 0.938394 0.756987
vt 0.963037 0.225402
vt 0.950715 0.107562
vt 0.975358 0.074417
vt 0.963037 0.000000
vt 0.987679 0.133812
vt 1.000000 0.253142
vt 0.963037 0.107562
vt 0.950716 0.000000
vt 0.913752 0.818883
vt 0.987679 0.253142
vt 0.926073 0.812995
vt 0.901431 0.906924
vn 0.918700 0.000000 0.395000
vn -0.148800 0.000000 0.988900
vn -0.348800 0.000000 0.937200
vn -0.147400 0.000000 -0.989100
vn 0.270200 0.000000 -0.962800
vn -0.961400 0.000000 -0.275200
vn -0.998300 0.000000 -0.057700
vn -0.978200 0.000000 -0.207800
vn -0.999800 0.000000 0.021000
vn 0.306900 0.000000 0.951700
vn 0.960000 0.000000 -0.280000
vn 0.885100 0.000000 -0.465400
vn -0.340600 0.000000 -0.940200
vn -0.987400 0.000000 0.158000
vn 0.979700 0.000000 0.200700
vn 0.900100 0.000000 0.435700
vn 0.536500 0.000000 0.843900
vn 0.774700 0.000000 -0.632300
vn -0.993000 0.000000 0.118000
vn -0.923300 0.000000 -0.384100
vn 0.835600 0.000000 0.549400
vn 0.998800 0.000000 0.049300
vn 0.965000 0.000000 0.262300
vn -0.878300 0.000000 0.478100
vn -0.949200 0.000000 0.314800
vn -0.987600 0.000000 0.157000
vn 0.987000 0.000000 -0.160900
vn 0.991700 0.000000 -0.128700
vn 0.942300 0.000000 -0.334700
vn -0.894200 0.000000 -0.447700
vn -0.779700 0.000000 0.626200
vn -0.973100 0.000000 0.230400
vn 0.993000 0.000000 -0.118000
vn 0.850700 0.000000 -0.525600
vn -0.822600 0.000000 -0.568700
vn -0.493800 0.000000 0.869600
vn -0.281000 0.000000 0.959700
vn 0.992500 0.000000 -0.121900
vn 0.999800 0.000000 -0.019000
vn 0.361700 0.000000 -0.932300
vn 0.153000 0.000000 -0.988200
vn 0.989300 0.000000 -0.145800
vn -0.941400 0.000000 0.337200
vn -0.988900 0.000000 0.148900
vn -0.990600 0.000000 0.136700
vn 0.169500 0.000000 0.985500
vn 0.977500 0.000000 -0.210900
vn -0.316500 0.000000 -0.948600
vn -0.858500 0.000000 0.512700
vn 0.383800 0.000000 0.923400
vn 0.475500 0.000000 -0.879700
vn -0.549000 0.000000 -0.835800
vn -0.917700 -0.045100 -0.394800
vn -0.917700 -0.044900 -0.394800
vn -0.917500 -0.046500 -0.395000
vn 0.147800 -0.072900 -0.986300
vn 0.147900 -0.072500 -0.986300
vn 0.346800 -0.075500 -0.934900
vn 0.143900 -0.072900 0.986900
vn 0.144000 -0.072100 0.986900
vn -0.268400 -0.073300 0.960500
vn 0.960300 -0.046500 0.275100
vn 0.960300 -0.046200 0.275100
vn 0.996900 -0.053300 0.057700
vn 0.998100 -0.057300 -0.021300
vn 0.976600 -0.057300 0.207500
vn -0.305000 -0.075500 -0.949400
vn -0.305100 -0.075200 -0.949300
vn -0.959100 -0.047500 0.279200
vn -0.959100 -0.046700 0.279300
vn -0.883300 -0.053800 0.465700
vn 0.335400 -0.078300 0.938800
vn 0.335000 -0.076800 0.939100
vn 0.996900 -0.053700 0.057800
vn 0.985500 -0.062100 -0.157600
vn -0.977400 -0.067800 -0.200100
vn -0.977400 -0.067700 -0.200100
vn -0.898300 -0.067600 -0.434000
vn -0.533900 -0.077000 -0.842100
vn -0.533800 -0.076600 -0.842100
vn -0.883400 -0.055000 0.465300
vn -0.772300 -0.072300 0.631200
vn 0.985500 -0.062400 -0.157600
vn 0.991000 -0.063500 -0.117800
vn 0.921200 -0.076900 0.381500
vn 0.921200 -0.076700 0.381400
vn 0.921000 -0.078100 0.381700
vn -0.834100 -0.047800 -0.549600
vn -0.898300 -0.068400 -0.434000
vn -0.996100 -0.073300 -0.048300
vn -0.996200 -0.072800 -0.048400
vn -0.962400 -0.076600 -0.260500
vn 0.875000 -0.071600 -0.478800
vn 0.875100 -0.070200 -0.478800
vn 0.945300 -0.075200 -0.317300
vn 0.985800 -0.059100 -0.157200
vn 0.991000 -0.063700 -0.117800
vn -0.985000 -0.062100 0.161000
vn -0.985000 -0.061800 0.161000
vn -0.990600 -0.046700 0.128300
vn -0.990700 -0.046200 0.128400
vn -0.941000 -0.053400 0.334100
vn 0.891800 -0.057300 0.448800
vn 0.891700 -0.056300 0.449000
vn 0.777600 -0.051500 -0.626700
vn 0.777500 -0.050000 -0.626900
vn 0.972100 -0.044700 -0.230500
vn 0.985800 -0.058500 -0.157100
vn -0.991200 -0.060700 0.117600
vn -0.991200 -0.060400 0.117600
vn -0.849600 -0.048000 0.525200
vn -0.941000 -0.053800 0.334100
vn 0.819200 -0.077200 0.568300
vn 0.819200 -0.075500 0.568500
vn 0.493700 -0.044200 -0.868500
vn 0.493600 -0.043800 -0.868600
vn 0.281100 -0.052900 -0.958200
vn -0.997600 -0.067400 0.018100
vn -0.989900 -0.073900 0.120600
vn -0.990000 -0.073300 0.120500
vn -0.361400 -0.047900 0.931200
vn -0.361400 -0.047600 0.931200
vn -0.153000 -0.053400 0.986800
vn -0.987500 -0.065700 0.143600
vn -0.987500 -0.065000 0.143600
vn 0.938900 -0.072400 -0.336600
vn 0.938900 -0.071800 -0.336600
vn 0.985700 -0.076600 -0.150200
vn 0.989400 -0.050500 -0.136500
vn 0.998100 -0.057000 -0.021200
vn 0.281100 -0.053100 -0.958200
vn -0.170000 -0.052900 -0.984000
vn -0.997600 -0.067000 0.018200
vn -0.974900 -0.078800 0.208000
vn -0.975000 -0.077800 0.207900
vn 0.316400 -0.052300 0.947200
vn -0.153000 -0.053600 0.986800
vn 0.856700 -0.075900 -0.510200
vn 0.856800 -0.075400 -0.510200
vn -0.384000 -0.045700 -0.922200
vn -0.170100 -0.053400 -0.984000
vn -0.268300 -0.073700 0.960500
vn -0.472600 -0.078300 0.877800
vn 0.548700 -0.046500 0.834800
vn 0.316300 -0.052000 0.947200
vn 0.000000 1.000000 0.000000
vn -0.917500 -0.046700 -0.395000
vn 0.346800 -0.075900 -0.934900
vn -0.772300 -0.073900 0.630900
vn 0.920900 -0.078400 0.381800
vn -0.834000 -0.046200 -0.549800
vn -0.962400 -0.077000 -0.260600
vn 0.945400 -0.076500 -0.316900
vn 0.972100 -0.043800 -0.230400
vn -0.849700 -0.047600 0.525100
vn 0.985700 -0.077200 -0.150100
vn 0.989400 -0.050000 -0.136400
vn -0.383900 -0.044900 -0.922300
vn -0.472600 -0.078900 0.877700
vn 0.548600 -0.046200 0.834800
s 1
f 10/1/1 50/2/1 169/3/1
f 29/4/2 69/5/2 71/6/3
f 11/7/4 51/8/4 53/9/5
f 26/10/6 66/11/6 64/12/7
f 39/13/8 79/14/8 42/15/9
f 27/16/10 67/17/10 69/5/2
f 8/18/11 48/3/11 46/19/12
f 219/20/13 175/21/13 51/8/4
f 24/22/7 64/12/7 62/23/14
f 40/24/15 80/25/15 78/26/16
f 220/27/17 195/28/17 67/17/10
f 6/29/12 46/19/12 164/30/18
f 22/31/14 62/23/14 60/32/19
f 222/33/20 171/34/20 49/35/20
f 38/36/16 78/26/16 207/37/21
f 23/38/22 63/39/22 65/11/23
f 5/40/24 45/41/24 47/34/25
f 20/42/19 60/32/19 58/43/26
f 21/44/27 61/45/27 63/39/22
f 36/46/28 76/37/28 74/47/29
f 37/48/30 77/49/30 79/14/8
f 224/50/31 162/51/31 45/41/24
f 18/52/26 58/43/26 181/53/32
f 19/54/33 59/55/33 61/45/27
f 34/56/29 74/47/29 201/57/34
f 227/58/35 209/59/35 77/49/30
f 16/60/36 56/61/36 54/62/37
f 4/63/38 44/30/38 41/64/39
f 32/65/40 72/66/40 70/67/41
f 17/68/42 57/69/42 59/55/33
f 33/70/43 73/71/43 75/59/44
f 2/72/9 42/15/9 43/51/45
f 14/73/37 54/62/37 52/74/46
f 1/75/39 41/64/39 80/25/15
f 228/76/47 183/77/47 57/69/42
f 30/78/41 70/67/41 68/79/48
f 217/2/49 203/10/49 73/71/43
f 12/80/46 52/74/46 173/81/50
f 13/82/5 53/9/5 55/83/51
f 28/84/48 68/79/48 193/85/52
f 130/2/53 90/1/54 283/18/55
f 149/5/56 109/4/57 111/20/58
f 131/8/59 91/7/60 93/82/61
f 146/11/62 106/10/63 104/22/64
f 122/15/65 159/14/66 119/13/66
f 149/5/56 147/17/67 107/16/68
f 128/3/69 88/18/70 86/29/71
f 131/8/59 243/21/72 287/20/73
f 144/12/74 104/22/64 102/31/75
f 160/25/76 120/24/77 118/36/78
f 147/17/67 263/28/79 288/27/80
f 126/19/81 86/29/71 289/63/82
f 142/23/83 102/31/75 100/42/84
f 239/34/85 290/33/86 89/86/87
f 275/37/88 158/26/89 118/36/78
f 143/39/90 103/38/91 105/85/92
f 125/41/93 85/40/94 87/33/95
f 138/43/96 140/32/97 100/42/84
f 141/45/98 101/44/99 103/38/91
f 156/37/100 116/46/101 114/56/102
f 157/49/103 117/48/104 119/13/66
f 230/51/105 292/50/106 85/40/94
f 249/53/107 138/43/96 98/52/108
f 139/55/109 99/54/110 101/44/99
f 269/57/111 154/47/112 114/56/102
f 157/49/103 277/59/113 295/58/114
f 136/61/115 96/60/116 94/73/117
f 121/64/118 124/30/119 84/63/120
f 152/66/121 112/65/122 110/78/123
f 139/55/109 137/69/124 97/68/125
f 153/71/126 113/70/127 115/58/128
f 123/51/129 122/15/65 82/72/130
f 134/62/131 94/73/117 92/80/132
f 121/64/118 81/75/133 120/24/77
f 137/69/124 251/77/134 296/76/135
f 148/79/136 150/67/137 110/78/123
f 153/71/126 271/10/138 285/2/139
f 241/81/140 132/74/141 92/80/132
f 133/9/142 93/82/61 95/87/143
f 261/85/144 148/79/136 108/84/145
f 161/15/146 229/15/146 231/51/146
f 165/30/146 233/30/146 234/64/146
f 165/30/146 167/19/146 235/19/146
f 168/41/146 163/51/146 231/51/146
f 167/19/146 170/3/146 238/3/146
f 172/34/146 168/41/146 236/41/146
f 170/3/146 174/2/146 242/2/146
f 176/35/146 172/34/146 240/34/146
f 177/74/146 245/74/146 242/81/146
f 176/21/146 244/21/146 246/8/146
f 177/74/146 179/62/146 247/62/146
f 180/9/146 178/8/146 246/8/146
f 179/62/146 182/61/146 250/61/146
f 184/83/146 180/9/146 248/9/146
f 185/43/146 253/43/146 250/53/146
f 184/77/146 252/77/146 254/69/146
f 187/32/146 255/32/146 253/43/146
f 186/69/146 254/69/146 256/55/146
f 187/32/146 189/23/146 257/23/146
f 190/45/146 188/55/146 256/55/146
f 189/23/146 191/12/146 259/12/146
f 192/39/146 190/45/146 258/45/146
f 191/12/146 194/11/146 262/11/146
f 196/11/146 192/39/146 260/39/146
f 197/79/146 265/79/146 262/85/146
f 196/28/146 264/28/146 266/17/146
f 199/67/146 267/67/146 265/79/146
f 198/17/146 266/17/146 268/5/146
f 199/67/146 202/66/146 270/66/146
f 204/6/146 200/5/146 268/5/146
f 205/47/146 273/47/146 270/57/146
f 204/10/146 272/10/146 274/71/146
f 205/47/146 208/37/146 276/37/146
f 210/59/146 206/71/146 274/71/146
f 211/26/146 279/26/146 276/37/146
f 210/59/146 278/59/146 280/49/146
f 211/26/146 213/25/146 281/25/146
f 214/14/146 212/49/146 280/49/146
f 213/25/146 166/64/146 234/64/146
f 214/14/146 282/14/146 229/15/146
f 215/18/1 10/1/1 169/3/1
f 31/20/3 29/4/2 71/6/3
f 13/82/5 11/7/4 53/9/5
f 24/22/7 26/10/6 64/12/7
f 2/72/9 39/13/8 42/15/9
f 29/4/2 27/16/10 69/5/2
f 6/29/12 8/18/11 46/19/12
f 11/7/4 219/20/13 51/8/4
f 22/31/14 24/22/7 62/23/14
f 38/36/16 40/24/15 78/26/16
f 27/16/10 220/27/17 67/17/10
f 221/63/18 6/29/12 164/30/18
f 20/42/19 22/31/14 60/32/19
f 9/86/20 222/33/20 49/35/20
f 223/46/21 38/36/16 207/37/21
f 25/85/23 23/38/22 65/11/23
f 7/33/25 5/40/24 47/34/25
f 18/52/26 20/42/19 58/43/26
f 23/38/22 21/44/27 63/39/22
f 34/56/29 36/46/28 74/47/29
f 39/13/8 37/48/30 79/14/8
f 5/40/24 224/50/31 45/41/24
f 225/88/32 18/52/26 181/53/32
f 21/44/27 19/54/33 61/45/27
f 226/89/34 34/56/29 201/57/34
f 37/48/30 227/58/35 77/49/30
f 14/73/37 16/60/36 54/62/37
f 1/75/39 4/63/38 41/64/39
f 30/78/41 32/65/40 70/67/41
f 19/54/33 17/68/42 59/55/33
f 35/58/44 33/70/43 75/59/44
f 3/50/45 2/72/9 43/51/45
f 12/80/46 14/73/37 52/74/46
f 40/24/15 1/75/39 80/25/15
f 17/68/42 228/76/47 57/69/42
f 28/84/48 30/78/41 68/79/48
f 33/70/43 217/2/49 73/71/43
f 216/6/50 12/80/46 173/81/50
f 15/87/51 13/82/5 55/83/51
f 218/81/52 28/84/48 193/85/52
f 237/3/147 130/2/53 283/18/55
f 151/6/148 149/5/56 111/20/58
f 133/9/142 131/8/59 93/82/61
f 144/12/74 146/11/62 104/22/64
f 82/72/130 122/15/65 119/13/66
f 109/4/57 149/5/56 107/16/68
f 126/19/81 128/3/69 86/29/71
f 91/7/60 131/8/59 287/20/73
f 142/23/83 144/12/74 102/31/75
f 158/26/89 160/25/76 118/36/78
f 107/16/68 147/17/67 288/27/80
f 232/30/149 126/19/81 289/63/82
f 140/32/97 142/23/83 100/42/84
f 129/35/150 239/34/85 89/86/87
f 291/46/151 275/37/88 118/36/78
f 145/11/152 143/39/90 105/85/92
f 127/34/153 125/41/93 87/33/95
f 98/52/108 138/43/96 100/42/84
f 143/39/90 141/45/98 103/38/91
f 154/47/112 156/37/100 114/56/102
f 159/14/66 157/49/103 119/13/66
f 125/41/93 230/51/105 85/40/94
f 293/88/154 249/53/107 98/52/108
f 141/45/98 139/55/109 101/44/99
f 294/89/155 269/57/111 114/56/102
f 117/48/104 157/49/103 295/58/114
f 134/62/131 136/61/115 94/73/117
f 81/75/133 121/64/118 84/63/120
f 150/67/137 152/66/121 110/78/123
f 99/54/110 139/55/109 97/68/125
f 155/59/156 153/71/126 115/58/128
f 83/50/157 123/51/129 82/72/130
f 132/74/141 134/62/131 92/80/132
f 160/25/76 121/64/118 120/24/77
f 97/68/125 137/69/124 296/76/135
f 108/84/145 148/79/136 110/78/123
f 113/70/127 153/71/126 285/2/139
f 284/6/158 241/81/140 92/80/132
f 135/83/159 133/9/142 95/87/143
f 286/81/160 261/85/144 108/84/145
f 163/51/146 161/15/146 231/51/146
f 166/64/146 165/30/146 234/64/146
f 233/30/146 165/30/146 235/19/146
f 236/41/146 168/41/146 231/51/146
f 235/19/146 167/19/146 238/3/146
f 240/34/146 172/34/146 236/41/146
f 238/3/146 170/3/146 242/2/146
f 244/35/146 176/35/146 240/34/146
f 174/81/146 177/74/146 242/81/146
f 178/8/146 176/21/146 246/8/146
f 245/74/146 177/74/146 247/62/146
f 248/9/146 180/9/146 246/8/146
f 247/62/146 179/62/146 250/61/146
f 252/83/146 184/83/146 248/9/146
f 182/53/146 185/43/146 250/53/146
f 186/69/146 184/77/146 254/69/146
f 185/43/146 187/32/146 253/43/146
f 188/55/146 186/69/146 256/55/146
f 255/32/146 187/32/146 257/23/146
f 258/45/146 190/45/146 256/55/146
f 257/23/146 189/23/146 259/12/146
f 260/39/146 192/39/146 258/45/146
f 259/12/146 191/12/146 262/11/146
f 264/11/146 196/11/146 260/39/146
f 194/85/146 197/79/146 262/85/146
f 198/17/146 196/28/146 266/17/146
f 197/79/146 199/67/146 265/79/146
f 200/5/146 198/17/146 268/5/146
f 267/67/146 199/67/146 270/66/146
f 272/6/146 204/6/146 268/5/146
f 202/57/146 205/47/146 270/57/146
f 206/71/146 204/10/146 274/71/146
f 273/47/146 205/47/146 276/37/146
f 278/59/146 210/59/146 274/71/146
f 208/37/146 211/26/146 276/37/146
f 212/49/146 210/59/146 280/49/146
f 279/26/146 211/26/146 281/25/146
f 282/14/146 214/14/146 280/49/146
f 281/25/146 213/25/146 234/64/146
f 161/15/146 214/14/146 229/15/146
